<svg xmlns="http://www.w3.org/2000/svg" xmlns:xlink="http://www.w3.org/1999/xlink" width="1080" zoomAndPan="magnify" viewBox="0 0 810 525.000007" height="700" preserveAspectRatio="xMidYMid meet" version="1.0"><defs><filter x="0%" y="0%" width="100%" height="100%" id="550ed8d9f0"><feColorMatrix values="0 0 0 0 1 0 0 0 0 1 0 0 0 0 1 0 0 0 1 0" color-interpolation-filters="sRGB"/></filter><clipPath id="e29c690e76"><path d="M 0.769531 0 L 809.230469 0 L 809.230469 524 L 0.769531 524 Z M 0.769531 0 " clip-rule="nonzero"/></clipPath><mask id="967834433d"><g filter="url(#550ed8d9f0)"><rect x="-81" width="972" fill="#000000" y="-52.500001" height="630.000008" fill-opacity="0.1"/></g></mask><clipPath id="2e5380e33e"><path d="M 0.0625 0.558594 L 352 0.558594 L 352 54.695312 L 0.0625 54.695312 Z M 0.0625 0.558594 " clip-rule="nonzero"/></clipPath><clipPath id="66fcc7e707"><rect x="0" width="353" y="0" height="55"/></clipPath><mask id="485f3f135a"><g filter="url(#550ed8d9f0)"><rect x="-81" width="972" fill="#000000" y="-52.500001" height="630.000008" fill-opacity="0.2"/></g></mask><clipPath id="ee6407ca38"><path d="M 1 0.09375 L 29 0.09375 L 29 19.257812 L 1 19.257812 Z M 1 0.09375 " clip-rule="nonzero"/></clipPath><clipPath id="b76fec4c28"><rect x="0" width="30" y="0" height="20"/></clipPath><mask id="32332cae7d"><g filter="url(#550ed8d9f0)"><rect x="-81" width="972" fill="#000000" y="-52.500001" height="630.000008" fill-opacity="0.2"/></g></mask><clipPath id="53cd16374e"><path d="M 0.21875 1 L 29.683594 1 L 29.683594 20.738281 L 0.21875 20.738281 Z M 0.21875 1 " clip-rule="nonzero"/></clipPath><clipPath id="5323f90f93"><rect x="0" width="30" y="0" height="21"/></clipPath><mask id="1f4bea5640"><g filter="url(#550ed8d9f0)"><rect x="-81" width="972" fill="#000000" y="-52.500001" height="630.000008" fill-opacity="0.2"/></g></mask><clipPath id="b8a2501649"><path d="M 1 1 L 301.5625 1 L 301.5625 86.5 L 1 86.5 Z M 1 1 " clip-rule="nonzero"/></clipPath><clipPath id="bd5083e0f7"><rect x="0" width="302" y="0" height="87"/></clipPath><clipPath id="d2437778df"><path d="M 156.222656 92 L 653.777344 92 L 653.777344 475 L 156.222656 475 Z M 156.222656 92 " clip-rule="nonzero"/></clipPath><clipPath id="f9e9d821da"><path d="M 156.222656 276 L 566 276 L 566 406 L 156.222656 406 Z M 156.222656 276 " clip-rule="nonzero"/></clipPath><mask id="3bd1c5c88f"><g filter="url(#550ed8d9f0)"><rect x="-81" width="972" fill="#000000" y="-52.500001" height="630.000008" fill-opacity="0.2"/></g></mask><clipPath id="906c3046a6"><path d="M 0.574219 0.0546875 L 369.234375 0.0546875 L 369.234375 65.6875 L 0.574219 65.6875 Z M 0.574219 0.0546875 " clip-rule="nonzero"/></clipPath><clipPath id="2737413a90"><rect x="0" width="370" y="0" height="66"/></clipPath><clipPath id="05868818c8"><path d="M 552 111 L 653.777344 111 L 653.777344 273 L 552 273 Z M 552 111 " clip-rule="nonzero"/></clipPath><clipPath id="4a0a20f633"><path d="M 487 59 L 653.777344 59 L 653.777344 241 L 487 241 Z M 487 59 " clip-rule="nonzero"/></clipPath><mask id="5780d0b924"><g filter="url(#550ed8d9f0)"><rect x="-81" width="972" fill="#000000" y="-52.500001" height="630.000008" fill-opacity="0.25"/></g></mask><clipPath id="ea57454c88"><path d="M 0.285156 0.167969 L 39 0.167969 L 39 65 L 0.285156 65 Z M 0.285156 0.167969 " clip-rule="nonzero"/></clipPath><clipPath id="864c383bfc"><path d="M 65 52 L 166.777344 52 L 166.777344 181.5 L 65 181.5 Z M 65 52 " clip-rule="nonzero"/></clipPath><clipPath id="50fef1816e"><rect x="0" width="167" y="0" height="182"/></clipPath></defs><g clip-path="url(#e29c690e76)"><path fill="#ffffff" d="M 0.769531 0 L 809.230469 0 L 809.230469 524 L 0.769531 524 Z M 0.769531 0 " fill-opacity="1" fill-rule="nonzero"/><path fill="#ffffff" d="M 0.769531 0 L 809.230469 0 L 809.230469 524 L 0.769531 524 Z M 0.769531 0 " fill-opacity="1" fill-rule="nonzero"/></g><path fill="#000001" d="M 264.132812 496.035156 C 264.132812 496.035156 206.984375 496.035156 206.984375 496.035156 C 200.519531 496.035156 195.28125 490.796875 195.28125 484.335938 C 195.28125 484.335938 195.28125 413.679688 195.28125 413.679688 C 195.28125 407.21875 200.519531 401.976562 206.984375 401.976562 C 206.984375 401.976562 264.132812 401.976562 264.132812 401.976562 C 270.59375 401.976562 275.832031 407.21875 275.832031 413.679688 C 275.832031 413.679688 275.832031 484.335938 275.832031 484.335938 C 275.832031 490.796875 270.59375 496.035156 264.132812 496.035156 Z M 264.132812 496.035156 " fill-opacity="1" fill-rule="nonzero"/><path fill="#000001" d="M 511.378906 496.035156 C 511.378906 496.035156 454.226562 496.035156 454.226562 496.035156 C 447.765625 496.035156 442.527344 490.796875 442.527344 484.335938 C 442.527344 484.335938 442.527344 413.679688 442.527344 413.679688 C 442.527344 407.21875 447.765625 401.976562 454.226562 401.976562 C 454.226562 401.976562 511.378906 401.976562 511.378906 401.976562 C 517.839844 401.976562 523.078125 407.21875 523.078125 413.679688 C 523.078125 413.679688 523.078125 484.335938 523.078125 484.335938 C 523.078125 490.796875 517.839844 496.035156 511.378906 496.035156 Z M 511.378906 496.035156 " fill-opacity="1" fill-rule="nonzero"/><path fill="#8c52ff" d="M 481.5 453.195312 C 481.5 453.195312 236.859375 453.195312 236.859375 453.195312 C 207.433594 453.195312 183.578125 429.339844 183.578125 399.914062 C 183.578125 399.914062 183.578125 347.046875 183.578125 347.046875 C 183.578125 335.433594 192.992188 326.019531 204.605469 326.019531 C 204.605469 326.019531 513.753906 326.019531 513.753906 326.019531 C 525.367188 326.019531 534.78125 335.433594 534.78125 347.046875 C 534.78125 347.046875 534.78125 399.914062 534.78125 399.914062 C 534.78125 429.339844 510.925781 453.195312 481.5 453.195312 Z M 481.5 453.195312 " fill-opacity="1" fill-rule="nonzero"/><g mask="url(#967834433d)"><g transform="matrix(1, 0, 0, 1, 183, 399)"><g clip-path="url(#66fcc7e707)"><g clip-path="url(#2e5380e33e)"><path fill="#000001" d="M 351.78125 0.914062 C 351.78125 30.339844 327.925781 54.195312 298.5 54.195312 C 298.5 54.195312 53.859375 54.195312 53.859375 54.195312 C 24.433594 54.195312 0.578125 30.339844 0.578125 0.914062 C 0.578125 0.914062 351.78125 0.914062 351.78125 0.914062 Z M 351.78125 0.914062 " fill-opacity="1" fill-rule="nonzero"/></g></g></g></g><path fill="#8c52ff" d="M 220.109375 331.984375 C 220.109375 331.984375 205.507812 331.984375 205.507812 331.984375 C 205.507812 331.984375 201.136719 320.574219 201.136719 320.574219 C 199.765625 316.992188 196.320312 314.632812 192.484375 314.652344 C 192.484375 314.652344 190.246094 314.660156 190.246094 314.660156 C 190.246094 314.660156 196.0625 307.316406 196.0625 307.316406 C 196.0625 307.316406 206.191406 307.316406 206.191406 307.316406 C 208.882812 307.316406 211.296875 308.976562 212.261719 311.492188 C 212.261719 311.492188 220.109375 331.984375 220.109375 331.984375 Z M 220.109375 331.984375 " fill-opacity="1" fill-rule="nonzero"/><g mask="url(#485f3f135a)"><g transform="matrix(1, 0, 0, 1, 189, 307)"><g clip-path="url(#b76fec4c28)"><g clip-path="url(#ee6407ca38)"><path fill="#000001" d="M 14.222656 19.019531 C 14.222656 19.019531 12.136719 13.574219 12.136719 13.574219 C 10.765625 9.992188 7.320312 7.632812 3.484375 7.652344 C 3.484375 7.652344 1.246094 7.660156 1.246094 7.660156 C 1.246094 7.660156 7.0625 0.316406 7.0625 0.316406 C 7.0625 0.316406 17.191406 0.316406 17.191406 0.316406 C 19.882812 0.316406 22.296875 1.976562 23.261719 4.492188 C 23.261719 4.492188 28.613281 18.472656 28.613281 18.472656 C 28.613281 18.472656 14.222656 19.019531 14.222656 19.019531 Z M 14.222656 19.019531 " fill-opacity="1" fill-rule="nonzero"/></g></g></g></g><path fill="#8c52ff" d="M 198.757812 314.660156 C 198.757812 314.660156 170.578125 314.660156 170.578125 314.660156 C 167.867188 314.660156 165.53125 312.746094 165 310.085938 C 165 310.085938 161.726562 293.636719 161.726562 293.636719 C 161.027344 290.117188 163.714844 286.839844 167.304688 286.839844 C 167.304688 286.839844 195.484375 286.839844 195.484375 286.839844 C 198.195312 286.839844 200.53125 288.753906 201.058594 291.417969 C 201.058594 291.417969 204.335938 307.863281 204.335938 307.863281 C 205.035156 311.382812 202.34375 314.660156 198.757812 314.660156 Z M 198.757812 314.660156 " fill-opacity="1" fill-rule="nonzero"/><path fill="#8c52ff" d="M 499.03125 331.984375 C 499.03125 331.984375 513.9375 331.984375 513.9375 331.984375 C 513.9375 331.984375 518.398438 320.574219 518.398438 320.574219 C 519.800781 316.992188 523.316406 314.632812 527.234375 314.652344 C 527.234375 314.652344 529.519531 314.660156 529.519531 314.660156 C 529.519531 314.660156 523.582031 307.316406 523.582031 307.316406 C 523.582031 307.316406 513.242188 307.316406 513.242188 307.316406 C 510.492188 307.316406 508.027344 308.976562 507.042969 311.492188 C 507.042969 311.492188 499.03125 331.984375 499.03125 331.984375 Z M 499.03125 331.984375 " fill-opacity="1" fill-rule="nonzero"/><g mask="url(#32332cae7d)"><g transform="matrix(1, 0, 0, 1, 500, 306)"><g clip-path="url(#5323f90f93)"><g clip-path="url(#53cd16374e)"><path fill="#000001" d="M 16.214844 20.167969 C 16.214844 20.167969 18.398438 14.574219 18.398438 14.574219 C 19.800781 10.992188 23.316406 8.632812 27.234375 8.652344 C 27.234375 8.652344 29.519531 8.660156 29.519531 8.660156 C 29.519531 8.660156 23.582031 1.316406 23.582031 1.316406 C 23.582031 1.316406 13.242188 1.316406 13.242188 1.316406 C 10.492188 1.316406 8.027344 2.976562 7.042969 5.492188 C 7.042969 5.492188 0.519531 20.167969 0.519531 20.167969 C 0.519531 20.167969 16.214844 20.167969 16.214844 20.167969 Z M 16.214844 20.167969 " fill-opacity="1" fill-rule="nonzero"/></g></g></g></g><path fill="#8c52ff" d="M 520.832031 314.660156 C 520.832031 314.660156 549.601562 314.660156 549.601562 314.660156 C 552.371094 314.660156 554.753906 312.746094 555.296875 310.085938 C 555.296875 310.085938 558.640625 293.636719 558.640625 293.636719 C 559.355469 290.117188 556.605469 286.839844 552.945312 286.839844 C 552.945312 286.839844 524.171875 286.839844 524.171875 286.839844 C 521.402344 286.839844 519.019531 288.753906 518.480469 291.417969 C 518.480469 291.417969 515.136719 307.863281 515.136719 307.863281 C 514.421875 311.382812 517.167969 314.660156 520.832031 314.660156 Z M 520.832031 314.660156 " fill-opacity="1" fill-rule="nonzero"/><path fill="#fffbfb" d="M 242.664062 262.765625 C 242.664062 262.765625 209.289062 326.019531 209.289062 326.019531 C 209.289062 326.019531 509.070312 326.019531 509.070312 326.019531 C 509.070312 326.019531 475.695312 262.765625 475.695312 262.765625 C 468.808594 249.710938 455.261719 241.542969 440.503906 241.542969 C 440.503906 241.542969 277.855469 241.542969 277.855469 241.542969 C 263.097656 241.542969 249.550781 249.710938 242.664062 262.765625 Z M 242.664062 262.765625 " fill-opacity="1" fill-rule="nonzero"/><g mask="url(#1f4bea5640)"><g transform="matrix(1, 0, 0, 1, 208, 240)"><g clip-path="url(#bd5083e0f7)"><g clip-path="url(#b8a2501649)"><path fill="#ffffff" d="M 34.664062 22.765625 C 34.664062 22.765625 1.289062 86.019531 1.289062 86.019531 C 1.289062 86.019531 301.070312 86.019531 301.070312 86.019531 C 301.070312 86.019531 267.695312 22.765625 267.695312 22.765625 C 260.808594 9.710938 247.261719 1.542969 232.503906 1.542969 C 232.503906 1.542969 69.855469 1.542969 69.855469 1.542969 C 55.097656 1.542969 41.550781 9.710938 34.664062 22.765625 Z M 34.664062 22.765625 " fill-opacity="1" fill-rule="nonzero"/></g></g></g></g><path fill="#fffbfb" d="M 293.5 320.96875 C 293.5 320.96875 271.078125 320.96875 271.078125 320.96875 C 271.078125 320.96875 304.449219 246.710938 304.449219 246.710938 C 304.449219 246.710938 326.871094 246.710938 326.871094 246.710938 C 326.871094 246.710938 293.5 320.96875 293.5 320.96875 Z M 293.5 320.96875 " fill-opacity="1" fill-rule="nonzero"/><path fill="#fffbfb" d="M 400.855469 320.820312 C 400.855469 320.820312 355.03125 320.820312 355.03125 320.820312 C 355.03125 320.820312 388.398438 246.5625 388.398438 246.5625 C 388.398438 246.5625 434.222656 246.5625 434.222656 246.5625 C 434.222656 246.5625 400.855469 320.820312 400.855469 320.820312 Z M 400.855469 320.820312 " fill-opacity="1" fill-rule="nonzero"/><path fill="#fffbfb" d="M 316.527344 320.894531 C 316.527344 320.894531 303.390625 320.894531 303.390625 320.894531 C 303.390625 320.894531 336.761719 246.640625 336.761719 246.640625 C 336.761719 246.640625 349.894531 246.640625 349.894531 246.640625 C 349.894531 246.640625 316.527344 320.894531 316.527344 320.894531 Z M 316.527344 320.894531 " fill-opacity="1" fill-rule="nonzero"/><g clip-path="url(#d2437778df)"><path stroke-linecap="butt" transform="matrix(0.585087, 0, 0, 0.585087, 359.180053, 283.781399)" fill="none" stroke-linejoin="miter" d="M -192.052751 -49.351896 C -192.052751 -49.351896 -256.18585 72.191208 -256.18585 72.191208 C -256.18585 72.191208 256.184599 72.191208 256.184599 72.191208 C 256.184599 72.191208 192.058177 -49.351896 192.058177 -49.351896 C 184.647419 -63.398954 170.066252 -72.191718 154.183196 -72.191718 C 154.183196 -72.191718 -154.184446 -72.191718 -154.184446 -72.191718 C -170.067503 -72.191718 -184.641993 -63.398954 -192.052751 -49.351896 Z M -192.052751 -49.351896 " stroke="#8c52ff" stroke-width="18" stroke-opacity="1" stroke-miterlimit="10"/></g><path fill="#fffbfb" d="M 289.527344 395.222656 C 289.527344 395.222656 214.074219 395.222656 214.074219 395.222656 C 206.445312 395.222656 199.976562 389.625 198.875 382.082031 C 198.875 382.082031 195.503906 359.007812 195.503906 359.007812 C 194.949219 355.203125 197.898438 351.789062 201.746094 351.789062 C 201.746094 351.789062 264.066406 351.789062 264.066406 351.789062 C 279.234375 351.789062 292.105469 362.917969 294.296875 377.925781 C 294.296875 377.925781 295.769531 388.003906 295.769531 388.003906 C 296.324219 391.808594 293.371094 395.222656 289.527344 395.222656 Z M 289.527344 395.222656 " fill-opacity="1" fill-rule="nonzero"/><path fill="#fffbfb" d="M 425.664062 395.222656 C 425.664062 395.222656 501.117188 395.222656 501.117188 395.222656 C 508.746094 395.222656 515.214844 389.625 516.316406 382.082031 C 516.316406 382.082031 519.6875 359.007812 519.6875 359.007812 C 520.242188 355.203125 517.292969 351.789062 513.445312 351.789062 C 513.445312 351.789062 451.125 351.789062 451.125 351.789062 C 435.957031 351.789062 423.085938 362.917969 420.894531 377.925781 C 420.894531 377.925781 419.421875 388.003906 419.421875 388.003906 C 418.867188 391.808594 421.820312 395.222656 425.664062 395.222656 Z M 425.664062 395.222656 " fill-opacity="1" fill-rule="nonzero"/><path fill="#ffa857" d="M 519.6875 359.007812 C 519.6875 359.007812 516.316406 382.078125 516.316406 382.078125 C 515.21875 389.625 508.746094 395.21875 501.117188 395.21875 C 501.117188 395.21875 500.519531 395.21875 500.519531 395.21875 C 500.519531 395.21875 506.910156 351.789062 506.910156 351.789062 C 506.910156 351.789062 513.445312 351.789062 513.445312 351.789062 C 517.289062 351.789062 520.242188 355.199219 519.6875 359.007812 Z M 519.6875 359.007812 " fill-opacity="1" fill-rule="nonzero"/><path fill="#ffa857" d="M 217.835938 395.21875 C 217.835938 395.21875 214.074219 395.21875 214.074219 395.21875 C 206.445312 395.21875 199.972656 389.625 198.875 382.078125 C 198.875 382.078125 195.503906 359.007812 195.503906 359.007812 C 194.949219 355.199219 197.902344 351.789062 201.746094 351.789062 C 201.746094 351.789062 211.453125 351.789062 211.453125 351.789062 C 211.453125 351.789062 217.835938 395.21875 217.835938 395.21875 Z M 217.835938 395.21875 " fill-opacity="1" fill-rule="nonzero"/><path fill="#fffbfb" d="M 506.839844 410.230469 C 506.839844 410.230469 208.351562 410.230469 208.351562 410.230469 C 206.195312 410.230469 204.445312 408.480469 204.445312 406.320312 C 204.445312 405.644531 204.996094 405.09375 205.671875 405.09375 C 205.671875 405.09375 509.519531 405.09375 509.519531 405.09375 C 510.199219 405.09375 510.746094 405.644531 510.746094 406.320312 C 510.746094 408.480469 508.996094 410.230469 506.839844 410.230469 Z M 506.839844 410.230469 " fill-opacity="1" fill-rule="nonzero"/><path fill="#fffbfb" d="M 498.5625 420.429688 C 498.5625 420.429688 216.628906 420.429688 216.628906 420.429688 C 214.46875 420.429688 212.71875 418.679688 212.71875 416.523438 C 212.71875 415.84375 213.269531 415.292969 213.949219 415.292969 C 213.949219 415.292969 501.246094 415.292969 501.246094 415.292969 C 501.921875 415.292969 502.472656 415.84375 502.472656 416.523438 C 502.472656 418.679688 500.722656 420.429688 498.5625 420.429688 Z M 498.5625 420.429688 " fill-opacity="1" fill-rule="nonzero"/><g clip-path="url(#f9e9d821da)"><path stroke-linecap="round" transform="matrix(0.585087, 0, 0, 0.585087, 349.852, 340.856053)" fill="none" stroke-linejoin="miter" d="M -284.18662 25.35581 C -284.18662 25.35581 -284.18662 10.581029 -284.18662 10.581029 C -284.18662 -9.267785 -268.096596 -25.357809 -248.247783 -25.357809 C -248.247783 -25.357809 284.185123 -25.357809 284.185123 -25.357809 " stroke="#8c52ff" stroke-width="6" stroke-opacity="1" stroke-miterlimit="10"/></g><g mask="url(#3bd1c5c88f)"><g transform="matrix(1, 0, 0, 1, 165, 308)"><g clip-path="url(#2737413a90)"><g clip-path="url(#906c3046a6)"><path stroke-linecap="round" transform="matrix(0.585087, 0, 0, 0.585087, 184.896448, 32.856054)" fill="none" stroke-linejoin="miter" d="M -284.262587 25.355809 C -284.262587 25.355809 -284.262587 10.581028 -284.262587 10.581028 C -284.262587 -9.267785 -268.172564 -25.357809 -248.32375 -25.357809 C -248.32375 -25.357809 284.262712 -25.357809 284.262712 -25.357809 " stroke="#000001" stroke-width="6" stroke-opacity="1" stroke-miterlimit="10"/></g></g></g></g><path fill="#ffffff" d="M 650.105469 65.828125 C 650.105469 65.828125 650.105469 161.003906 650.105469 161.003906 C 650.105469 181.871094 638.96875 201.152344 620.898438 211.585938 C 620.898438 211.585938 565.226562 243.730469 565.226562 243.730469 C 564.132812 244.363281 562.910156 244.675781 561.683594 244.675781 C 560.460938 244.675781 559.238281 244.363281 558.140625 243.730469 C 558.140625 243.730469 502.472656 211.585938 502.472656 211.585938 C 484.398438 201.152344 473.265625 181.871094 473.265625 161.003906 C 473.265625 161.003906 473.265625 65.828125 473.265625 65.828125 C 473.265625 62.648438 475.234375 59.800781 478.210938 58.675781 C 478.210938 58.675781 559.183594 28.132812 559.183594 28.132812 C 559.988281 27.832031 560.839844 27.679688 561.683594 27.679688 C 562.53125 27.679688 563.378906 27.832031 564.1875 28.132812 C 564.1875 28.132812 645.160156 58.675781 645.160156 58.675781 C 648.136719 59.800781 650.105469 62.648438 650.105469 65.828125 Z M 650.105469 65.828125 " fill-opacity="1" fill-rule="nonzero"/><path fill="#fffbfb" d="M 633.996094 147.113281 C 633.996094 147.113281 633.996094 82.429688 633.996094 82.429688 C 633.996094 77.46875 630.921875 73.027344 626.28125 71.277344 C 626.28125 71.277344 567.492188 49.101562 567.492188 49.101562 C 563.75 47.691406 559.621094 47.691406 555.875 49.101562 C 555.875 49.101562 497.089844 71.277344 497.089844 71.277344 C 492.449219 73.027344 489.375 77.46875 489.375 82.429688 C 489.375 82.429688 489.375 147.113281 489.375 147.113281 C 489.375 169.890625 501.527344 190.9375 521.253906 202.324219 C 521.253906 202.324219 555.703125 222.214844 555.703125 222.214844 C 559.40625 224.351562 563.964844 224.351562 567.667969 222.214844 C 567.667969 222.214844 602.117188 202.324219 602.117188 202.324219 C 621.84375 190.9375 633.996094 169.890625 633.996094 147.113281 Z M 633.996094 147.113281 " fill-opacity="1" fill-rule="nonzero"/><path fill="#8c52ff" d="M 618.007812 99.105469 C 618.007812 99.105469 618.007812 113.496094 618.007812 113.496094 C 618.007812 119.257812 615.375 124.703125 610.855469 128.28125 C 610.855469 128.28125 545.347656 180.160156 545.347656 180.160156 C 544.300781 180.988281 542.820312 180.988281 541.773438 180.160156 C 541.773438 180.160156 512.515625 156.988281 512.515625 156.988281 C 507.996094 153.410156 505.363281 147.964844 505.363281 142.203125 C 505.363281 142.203125 505.363281 127.8125 505.363281 127.8125 C 505.363281 125.40625 508.144531 124.058594 510.03125 125.554688 C 510.03125 125.554688 541.773438 150.691406 541.773438 150.691406 C 542.820312 151.519531 544.300781 151.519531 545.347656 150.691406 C 545.347656 150.691406 613.335938 96.847656 613.335938 96.847656 C 615.226562 95.351562 618.007812 96.695312 618.007812 99.105469 Z M 618.007812 99.105469 " fill-opacity="1" fill-rule="nonzero"/><path stroke-linecap="round" transform="matrix(0.585087, 0, 0, 0.585087, 506.657643, 91.532959)" fill="none" stroke-linejoin="round" d="M 29.533829 -51.858197 C 29.533829 -51.858197 -23.863685 -31.715624 -23.863685 -31.715624 C -27.275304 -30.427087 -29.53859 -27.162347 -29.53859 -23.510379 C -29.53859 -23.510379 -29.53859 51.859031 -29.53859 51.859031 " stroke="#ffffff" stroke-width="6" stroke-opacity="1" stroke-miterlimit="4"/><g clip-path="url(#05868818c8)"><path stroke-linecap="round" transform="matrix(0.585087, 0, 0, 0.585087, 625.937551, 191.816862)" fill="none" stroke-linejoin="miter" d="M 41.306542 -52.663894 C 41.306542 -16.998787 22.272244 15.955718 -8.61259 33.788271 C -8.61259 33.788271 -41.306717 52.669013 -41.306717 52.669013 " stroke="#ffffff" stroke-width="6" stroke-opacity="1" stroke-miterlimit="10"/></g><g clip-path="url(#4a0a20f633)"><g mask="url(#5780d0b924)"><g transform="matrix(1, 0, 0, 1, 487, 59)"><g clip-path="url(#50fef1816e)"><g clip-path="url(#ea57454c88)"><path stroke-linecap="round" transform="matrix(0.585087, 0, 0, 0.585087, 19.657636, 32.532959)" fill="none" stroke-linejoin="round" d="M 29.533841 -51.858196 C 29.533841 -51.858196 -23.863673 -31.715623 -23.863673 -31.715623 C -27.275292 -30.427086 -29.538578 -27.162347 -29.538578 -23.510379 C -29.538578 -23.510379 -29.538578 51.859031 -29.538578 51.859031 " stroke="#000001" stroke-width="6" stroke-opacity="1" stroke-miterlimit="4"/></g><g clip-path="url(#864c383bfc)"><path stroke-linecap="round" transform="matrix(0.585087, 0, 0, 0.585087, 138.937542, 132.816848)" fill="none" stroke-linejoin="miter" d="M 41.306558 -52.663869 C 41.306558 -16.998763 22.27226 15.955742 -8.612574 33.788296 C -8.612574 33.788296 -41.306701 52.669037 -41.306701 52.669037 " stroke="#000001" stroke-width="6" stroke-opacity="1" stroke-miterlimit="10"/></g></g></g></g></g></svg>